<svg xmlns="http://www.w3.org/2000/svg" width="450" height="450">
  <g stroke="null">
    <path fill="#585859"
      d="M448.2 170.3a12 12 0 0 0-11.4-8.7H307l7.8 25.1H400L331.1 239l7.8 25 105-79.6a13 13 0 0 0 4.3-14z" />
    <path fill="#ea6036"
      d="m320 278.5-20.4 15.4L333 401.6l-101-76.8a12 12.6 0 0 0-14.2 0l-101 76.8 38.6-124.2c1.6-5.2-.1-10.8-4.4-14L50 186.6h125a12 12 0 0 0 11.3-8.7L225 53.7l33.6 107.8h25.2L236.4 9.4C234.8 4.2 230.3.7 225 .7s-9.7 3.5-11.3 8.7l-42.3 136-5 16.2H13.3a12 12.5 0 0 0-7 22.8l123.7 94-4.2 13.6-43 138.6A12 12.5 0 0 0 94.2 447c2.4 0 4.9-.7 7-2.3L225 350.6l123.9 94a12 12.6 0 0 0 14.1 0c4.2-3.2 6-8.7 4.3-14L320 278.5z" />
  </g>
</svg>